<?xml version="1.0" encoding="UTF-8" standalone="no"?><svg xmlns="http://www.w3.org/2000/svg" xmlns:xlink="http://www.w3.org/1999/xlink" contentStyleType="text/css" height="486px" preserveAspectRatio="none" style="width:641px;height:486px;background:#FFFFFF;" version="1.1" viewBox="0 0 641 486" width="641px" zoomAndPan="magnify"><defs/><g><text fill="#000000" font-family="sans-serif" font-size="14" font-weight="bold" lengthAdjust="spacing" textLength="312" x="157.5" y="22.9951">Learning gamification - Domain classes</text><!--cluster core.scholar.lessons--><g id="cluster_core.scholar.lessons"><path d="M354.5,43.2969 L516.5,43.2969 A3.75,3.75 0 0 1 519,45.7969 L526,65.5938 L631.5,65.5938 A2.5,2.5 0 0 1 634,68.0938 L634,476.7969 A2.5,2.5 0 0 1 631.5,479.2969 L354.5,479.2969 A2.5,2.5 0 0 1 352,476.7969 L352,45.7969 A2.5,2.5 0 0 1 354.5,43.2969 " fill="none" style="stroke:#000000;stroke-width:1.5;"/><line style="stroke:#000000;stroke-width:1.5;" x1="352" x2="526" y1="65.5938" y2="65.5938"/><text fill="#000000" font-family="sans-serif" font-size="14" font-weight="bold" lengthAdjust="spacing" textLength="161" x="356" y="58.292">core.scholar.lessons</text></g><!--cluster core.schoolar.students--><g id="cluster_core.schoolar.students"><path d="M69.5,158.2969 L252.5,158.2969 A3.75,3.75 0 0 1 255,160.7969 L262,180.5938 L262.5,180.5938 A2.5,2.5 0 0 1 265,183.0938 L265,287.7969 A2.5,2.5 0 0 1 262.5,290.2969 L69.5,290.2969 A2.5,2.5 0 0 1 67,287.7969 L67,160.7969 A2.5,2.5 0 0 1 69.5,158.2969 " fill="none" style="stroke:#000000;stroke-width:1.5;"/><line style="stroke:#000000;stroke-width:1.5;" x1="67" x2="262" y1="180.5938" y2="180.5938"/><text fill="#000000" font-family="sans-serif" font-size="14" font-weight="bold" lengthAdjust="spacing" textLength="182" x="71" y="173.292">core.schoolar.students</text></g><!--cluster core.gamification--><g id="cluster_core.gamification"><path d="M8.5,323.2969 L148.5,323.2969 A3.75,3.75 0 0 1 151,325.7969 L158,345.5938 L325.5,345.5938 A2.5,2.5 0 0 1 328,348.0938 L328,452.7969 A2.5,2.5 0 0 1 325.5,455.2969 L8.5,455.2969 A2.5,2.5 0 0 1 6,452.7969 L6,325.7969 A2.5,2.5 0 0 1 8.5,323.2969 " fill="none" style="stroke:#000000;stroke-width:1.5;"/><line style="stroke:#000000;stroke-width:1.5;" x1="6" x2="158" y1="345.5938" y2="345.5938"/><text fill="#000000" font-family="sans-serif" font-size="14" font-weight="bold" lengthAdjust="spacing" textLength="139" x="10" y="338.292">core.gamification</text></g><!--class Lesson--><g id="elem_Lesson"><rect codeLine="5" fill="#F1F1F1" height="129.4844" id="Lesson" rx="2.5" ry="2.5" style="stroke:#181818;stroke-width:0.5;" width="193" x="382.5" y="334.2969"/><ellipse cx="450.25" cy="350.2969" fill="#ADD1B2" rx="11" ry="11" style="stroke:#181818;stroke-width:1.0;"/><path d="M452.7188,356.4375 Q452.1406,356.7344 451.5,356.875 Q450.8594,357.0313 450.1563,357.0313 Q447.6563,357.0313 446.3281,355.3906 Q445.0156,353.7344 445.0156,350.6094 Q445.0156,347.4844 446.3281,345.8281 Q447.6563,344.1719 450.1563,344.1719 Q450.8594,344.1719 451.5,344.3281 Q452.1563,344.4844 452.7188,344.7813 L452.7188,347.5 Q452.0938,346.9219 451.5,346.6563 Q450.9063,346.375 450.2813,346.375 Q448.9375,346.375 448.25,347.4531 Q447.5625,348.5156 447.5625,350.6094 Q447.5625,352.7031 448.25,353.7813 Q448.9375,354.8438 450.2813,354.8438 Q450.9063,354.8438 451.5,354.5781 Q452.0938,354.2969 452.7188,353.7188 L452.7188,356.4375 Z " fill="#000000"/><text fill="#000000" font-family="sans-serif" font-size="14" lengthAdjust="spacing" textLength="49" x="470.75" y="355.1436">Lesson</text><line style="stroke:#181818;stroke-width:0.5;" x1="383.5" x2="574.5" y1="366.2969" y2="366.2969"/><rect fill="none" height="6" style="stroke:#C82930;stroke-width:1.0;" width="6" x="390.5" y="376.9453"/><text fill="#000000" font-family="sans-serif" font-size="14" lengthAdjust="spacing" textLength="80" x="402.5" y="383.292">slug: String</text><rect fill="none" height="6" style="stroke:#C82930;stroke-width:1.0;" width="6" x="390.5" y="393.2422"/><text fill="#000000" font-family="sans-serif" font-size="14" lengthAdjust="spacing" textLength="78" x="402.5" y="399.5889">title: String</text><rect fill="none" height="6" style="stroke:#C82930;stroke-width:1.0;" width="6" x="390.5" y="409.5391"/><text fill="#000000" font-family="sans-serif" font-size="14" lengthAdjust="spacing" textLength="130" x="402.5" y="415.8857">description: String</text><rect fill="none" height="6" style="stroke:#C82930;stroke-width:1.0;" width="6" x="390.5" y="425.8359"/><text fill="#000000" font-family="sans-serif" font-size="14" lengthAdjust="spacing" textLength="167" x="402.5" y="432.1826">subjects: Set&lt;Subject&gt;</text><rect fill="none" height="6" style="stroke:#C82930;stroke-width:1.0;" width="6" x="390.5" y="442.1328"/><text fill="#000000" font-family="sans-serif" font-size="14" lengthAdjust="spacing" textLength="133" x="402.5" y="448.4795">pointsWorth: Short</text><line style="stroke:#181818;stroke-width:0.5;" x1="383.5" x2="574.5" y1="455.7813" y2="455.7813"/></g><!--class Module--><g id="elem_Module"><rect codeLine="12" fill="#F1F1F1" height="80.5938" id="Module" rx="2.5" ry="2.5" style="stroke:#181818;stroke-width:0.5;" width="183" x="394.5" y="193.2969"/><ellipse cx="455.75" cy="209.2969" fill="#ADD1B2" rx="11" ry="11" style="stroke:#181818;stroke-width:1.0;"/><path d="M458.2188,215.4375 Q457.6406,215.7344 457,215.875 Q456.3594,216.0313 455.6563,216.0313 Q453.1563,216.0313 451.8281,214.3906 Q450.5156,212.7344 450.5156,209.6094 Q450.5156,206.4844 451.8281,204.8281 Q453.1563,203.1719 455.6563,203.1719 Q456.3594,203.1719 457,203.3281 Q457.6563,203.4844 458.2188,203.7813 L458.2188,206.5 Q457.5938,205.9219 457,205.6563 Q456.4063,205.375 455.7813,205.375 Q454.4375,205.375 453.75,206.4531 Q453.0625,207.5156 453.0625,209.6094 Q453.0625,211.7031 453.75,212.7813 Q454.4375,213.8438 455.7813,213.8438 Q456.4063,213.8438 457,213.5781 Q457.5938,213.2969 458.2188,212.7188 L458.2188,215.4375 Z " fill="#000000"/><text fill="#000000" font-family="sans-serif" font-size="14" lengthAdjust="spacing" textLength="52" x="476.25" y="214.1436">Module</text><line style="stroke:#181818;stroke-width:0.5;" x1="395.5" x2="576.5" y1="225.2969" y2="225.2969"/><rect fill="none" height="6" style="stroke:#C82930;stroke-width:1.0;" width="6" x="402.5" y="235.9453"/><text fill="#000000" font-family="sans-serif" font-size="14" lengthAdjust="spacing" textLength="92" x="414.5" y="242.292">name: String</text><rect fill="none" height="6" style="stroke:#C82930;stroke-width:1.0;" width="6" x="402.5" y="252.2422"/><text fill="#000000" font-family="sans-serif" font-size="14" lengthAdjust="spacing" textLength="157" x="414.5" y="258.5889">lessons: Set&lt;Lesson&gt;</text><line style="stroke:#181818;stroke-width:0.5;" x1="395.5" x2="576.5" y1="265.8906" y2="265.8906"/></g><g id="elem_GMN5"><path d="M368,78.2969 L368,133.6953 A0,0 0 0 0 368,133.6953 L487.52,133.6953 L488.2,193.1869 L495.52,133.6953 L618,133.6953 A0,0 0 0 0 618,133.6953 L618,88.2969 L608,78.2969 L368,78.2969 A0,0 0 0 0 368,78.2969 " fill="#FEFFDD" style="stroke:#181818;stroke-width:0.5;"/><path d="M608,78.2969 L608,88.2969 L618,88.2969 L608,78.2969 " fill="#FEFFDD" style="stroke:#181818;stroke-width:0.5;"/><text fill="#000000" font-family="sans-serif" font-size="13" lengthAdjust="spacing" textLength="229" x="374" y="95.3638">Modules are just groups of lessons.</text><text fill="#000000" font-family="sans-serif" font-size="13" lengthAdjust="spacing" textLength="209" x="374" y="110.4966">One module will be done if their</text><text fill="#000000" font-family="sans-serif" font-size="13" lengthAdjust="spacing" textLength="114" x="374" y="125.6294">lessons are done.</text></g><!--class Student--><g id="elem_Student"><rect codeLine="26" fill="#F1F1F1" height="80.5938" id="Student" rx="2.5" ry="2.5" style="stroke:#181818;stroke-width:0.5;" width="118" x="107" y="193.2969"/><ellipse cx="135.95" cy="209.2969" fill="#ADD1B2" rx="11" ry="11" style="stroke:#181818;stroke-width:1.0;"/><path d="M138.4188,215.4375 Q137.8406,215.7344 137.2,215.875 Q136.5594,216.0313 135.8563,216.0313 Q133.3563,216.0313 132.0281,214.3906 Q130.7156,212.7344 130.7156,209.6094 Q130.7156,206.4844 132.0281,204.8281 Q133.3563,203.1719 135.8563,203.1719 Q136.5594,203.1719 137.2,203.3281 Q137.8563,203.4844 138.4188,203.7813 L138.4188,206.5 Q137.7938,205.9219 137.2,205.6563 Q136.6063,205.375 135.9813,205.375 Q134.6375,205.375 133.95,206.4531 Q133.2625,207.5156 133.2625,209.6094 Q133.2625,211.7031 133.95,212.7813 Q134.6375,213.8438 135.9813,213.8438 Q136.6063,213.8438 137.2,213.5781 Q137.7938,213.2969 138.4188,212.7188 L138.4188,215.4375 Z " fill="#000000"/><text fill="#000000" font-family="sans-serif" font-size="14" lengthAdjust="spacing" textLength="55" x="153.05" y="214.1436">Student</text><line style="stroke:#181818;stroke-width:0.5;" x1="108" x2="224" y1="225.2969" y2="225.2969"/><rect fill="none" height="6" style="stroke:#C82930;stroke-width:1.0;" width="6" x="115" y="235.9453"/><text fill="#000000" font-family="sans-serif" font-size="14" lengthAdjust="spacing" textLength="92" x="127" y="242.292">name: String</text><rect fill="none" height="6" style="stroke:#C82930;stroke-width:1.0;" width="6" x="115" y="252.2422"/><text fill="#000000" font-family="sans-serif" font-size="14" lengthAdjust="spacing" textLength="89" x="127" y="258.5889">score: Score</text><line style="stroke:#181818;stroke-width:0.5;" x1="108" x2="224" y1="265.8906" y2="265.8906"/></g><!--class Score--><g id="elem_Score"><rect codeLine="33" fill="#F1F1F1" height="64.2969" id="Score" rx="2.5" ry="2.5" style="stroke:#181818;stroke-width:0.5;" width="113" x="22.5" y="366.7969"/><ellipse cx="55.5" cy="382.7969" fill="#ADD1B2" rx="11" ry="11" style="stroke:#181818;stroke-width:1.0;"/><path d="M57.9688,388.9375 Q57.3906,389.2344 56.75,389.375 Q56.1094,389.5313 55.4063,389.5313 Q52.9063,389.5313 51.5781,387.8906 Q50.2656,386.2344 50.2656,383.1094 Q50.2656,379.9844 51.5781,378.3281 Q52.9063,376.6719 55.4063,376.6719 Q56.1094,376.6719 56.75,376.8281 Q57.4063,376.9844 57.9688,377.2813 L57.9688,380 Q57.3438,379.4219 56.75,379.1563 Q56.1563,378.875 55.5313,378.875 Q54.1875,378.875 53.5,379.9531 Q52.8125,381.0156 52.8125,383.1094 Q52.8125,385.2031 53.5,386.2813 Q54.1875,387.3438 55.5313,387.3438 Q56.1563,387.3438 56.75,387.0781 Q57.3438,386.7969 57.9688,386.2188 L57.9688,388.9375 Z " fill="#000000"/><text fill="#000000" font-family="sans-serif" font-size="14" lengthAdjust="spacing" textLength="41" x="73.5" y="387.6436">Score</text><line style="stroke:#181818;stroke-width:0.5;" x1="23.5" x2="134.5" y1="398.7969" y2="398.7969"/><rect fill="none" height="6" style="stroke:#C82930;stroke-width:1.0;" width="6" x="30.5" y="409.4453"/><text fill="#000000" font-family="sans-serif" font-size="14" lengthAdjust="spacing" textLength="87" x="42.5" y="415.792">points: Long</text><line style="stroke:#181818;stroke-width:0.5;" x1="23.5" x2="134.5" y1="423.0938" y2="423.0938"/></g><!--class Progress--><g id="elem_Progress"><rect codeLine="36" fill="#F1F1F1" height="80.5938" id="Progress" rx="2.5" ry="2.5" style="stroke:#181818;stroke-width:0.5;" width="141" x="170.5" y="358.2969"/><ellipse cx="207.1" cy="374.2969" fill="#ADD1B2" rx="11" ry="11" style="stroke:#181818;stroke-width:1.0;"/><path d="M209.5688,380.4375 Q208.9906,380.7344 208.35,380.875 Q207.7094,381.0313 207.0063,381.0313 Q204.5063,381.0313 203.1781,379.3906 Q201.8656,377.7344 201.8656,374.6094 Q201.8656,371.4844 203.1781,369.8281 Q204.5063,368.1719 207.0063,368.1719 Q207.7094,368.1719 208.35,368.3281 Q209.0063,368.4844 209.5688,368.7813 L209.5688,371.5 Q208.9438,370.9219 208.35,370.6563 Q207.7563,370.375 207.1313,370.375 Q205.7875,370.375 205.1,371.4531 Q204.4125,372.5156 204.4125,374.6094 Q204.4125,376.7031 205.1,377.7813 Q205.7875,378.8438 207.1313,378.8438 Q207.7563,378.8438 208.35,378.5781 Q208.9438,378.2969 209.5688,377.7188 L209.5688,380.4375 Z " fill="#000000"/><text fill="#000000" font-family="sans-serif" font-size="14" lengthAdjust="spacing" textLength="61" x="225.9" y="379.1436">Progress</text><line style="stroke:#181818;stroke-width:0.5;" x1="171.5" x2="310.5" y1="390.2969" y2="390.2969"/><rect fill="none" height="6" style="stroke:#C82930;stroke-width:1.0;" width="6" x="178.5" y="400.9453"/><text fill="#000000" font-family="sans-serif" font-size="14" lengthAdjust="spacing" textLength="103" x="190.5" y="407.292">lesson: Lesson</text><rect fill="none" height="6" style="stroke:#C82930;stroke-width:1.0;" width="6" x="178.5" y="417.2422"/><text fill="#000000" font-family="sans-serif" font-size="14" lengthAdjust="spacing" textLength="115" x="190.5" y="423.5889">percent: Double</text><line style="stroke:#181818;stroke-width:0.5;" x1="171.5" x2="310.5" y1="430.8906" y2="430.8906"/></g><!--link Module to Lesson--><g id="link_Module_Lesson"><path codeLine="22" d="M484.29,274.6669 C483.69,288.6569 482.99,304.8869 482.3,320.8769 " fill="none" id="Module-to-Lesson" style="stroke:#181818;stroke-width:1.0;"/><polygon fill="#181818" points="481.73,334.2069,485.9835,328.3838,482.2444,322.2179,477.9909,328.0409,481.73,334.2069" style="stroke:#181818;stroke-width:1.0;"/></g><!--link Student to Score--><g id="link_Student_Score"><path codeLine="42" d="M144.72,274.6669 C129.58,303.0369 109.52,340.6069 95.57,366.7569 " fill="none" id="Student-Score" style="stroke:#181818;stroke-width:1.0;"/></g><!--link Student to Progress--><g id="link_Student_Progress"><path codeLine="43" d="M184.35,274.6669 C196.01,300.0269 211.06,332.7269 222.71,358.0569 " fill="none" id="Student-Progress" style="stroke:#181818;stroke-width:1.0;"/></g><!--link Progress to Lesson--><g id="link_Progress_Lesson"><path codeLine="44" d="M311.66,398.7969 C335.19,398.7969 358.72,398.7969 382.25,398.7969 " fill="none" id="Progress-Lesson" style="stroke:#181818;stroke-width:1.0;"/></g><!--SRC=[ZLAxRiCm3Dpz5KJ70iu764McZYbQ84DdHQPjfR9eY1Gw5Fdtwc43Sk6XMWGTATuTIJ5Y4PukgBmpReHHpMOmMeaX1osyqgoC0sqLC_9JqonAVwaHGPF74-k9hF8dYypa67uQY2SdmoLZAvHE2sp3sC5LV2IgO4aI3l0UMNkp92K7KGwtEshX649vkPRNkKfOo3ZXJ_8onPmftZdug3I-KH-Y-rgZK_EHbjLX8IlMpbKvHu8WjEH7gSgWFC8ziC3eAImCD6nbJZdltI7CHS6tiHPk23r5p0mW4ngVaxRMfc8fMhwYwpDdKn52spwlNMyU1uFAas89FSQsx4PrBU1_-i2fNCJJjVh_oxNRe1rD2kz8oeWwkD1AKW_dmzFeevtTZzAERlDPbKAleuSkRcousKhRPgvjLzKLi54qwxAs5WUfu5y0]--></g></svg>