<?xml version="1.0" encoding="UTF-8" standalone="no"?><svg xmlns="http://www.w3.org/2000/svg" xmlns:xlink="http://www.w3.org/1999/xlink" contentStyleType="text/css" height="272px" preserveAspectRatio="none" style="width:598px;height:272px;background:#FFFFFF;" version="1.1" viewBox="0 0 598 272" width="598px" zoomAndPan="magnify"><defs/><g><text fill="#000000" font-family="sans-serif" font-size="14" font-weight="bold" lengthAdjust="spacing" textLength="257" x="163.75" y="22.9951">Learning gamification - Services</text><!--class StudentsService--><g id="elem_StudentsService"><rect codeLine="3" fill="#F1F1F1" height="64.2969" id="StudentsService" rx="2.5" ry="2.5" style="stroke:#181818;stroke-width:0.5;" width="214" x="7" y="60.7969"/><ellipse cx="52.25" cy="76.7969" fill="#ADD1B2" rx="11" ry="11" style="stroke:#181818;stroke-width:1.0;"/><path d="M54.7188,82.9375 Q54.1406,83.2344 53.5,83.375 Q52.8594,83.5313 52.1563,83.5313 Q49.6563,83.5313 48.3281,81.8906 Q47.0156,80.2344 47.0156,77.1094 Q47.0156,73.9844 48.3281,72.3281 Q49.6563,70.6719 52.1563,70.6719 Q52.8594,70.6719 53.5,70.8281 Q54.1563,70.9844 54.7188,71.2813 L54.7188,74 Q54.0938,73.4219 53.5,73.1563 Q52.9063,72.875 52.2813,72.875 Q50.9375,72.875 50.25,73.9531 Q49.5625,75.0156 49.5625,77.1094 Q49.5625,79.2031 50.25,80.2813 Q50.9375,81.3438 52.2813,81.3438 Q52.9063,81.3438 53.5,81.0781 Q54.0938,80.7969 54.7188,80.2188 L54.7188,82.9375 Z " fill="#000000"/><text fill="#000000" font-family="sans-serif" font-size="14" lengthAdjust="spacing" textLength="115" x="72.75" y="81.6436">StudentsService</text><line style="stroke:#181818;stroke-width:0.5;" x1="8" x2="220" y1="92.7969" y2="92.7969"/><line style="stroke:#181818;stroke-width:0.5;" x1="8" x2="220" y1="100.7969" y2="100.7969"/><ellipse cx="18" cy="114.4453" fill="#84BE84" rx="3" ry="3" style="stroke:#038048;stroke-width:1.0;"/><text fill="#000000" font-family="sans-serif" font-size="14" lengthAdjust="spacing" textLength="188" x="27" y="117.792">create(StudentIn): Student</text></g><!--class LessonsService--><g id="elem_LessonsService"><rect codeLine="6" fill="#F1F1F1" height="96.8906" id="LessonsService" rx="2.5" ry="2.5" style="stroke:#181818;stroke-width:0.5;" width="335" x="256.5" y="44.2969"/><ellipse cx="365.25" cy="60.2969" fill="#ADD1B2" rx="11" ry="11" style="stroke:#181818;stroke-width:1.0;"/><path d="M367.7188,66.4375 Q367.1406,66.7344 366.5,66.875 Q365.8594,67.0313 365.1563,67.0313 Q362.6563,67.0313 361.3281,65.3906 Q360.0156,63.7344 360.0156,60.6094 Q360.0156,57.4844 361.3281,55.8281 Q362.6563,54.1719 365.1563,54.1719 Q365.8594,54.1719 366.5,54.3281 Q367.1563,54.4844 367.7188,54.7813 L367.7188,57.5 Q367.0938,56.9219 366.5,56.6563 Q365.9063,56.375 365.2813,56.375 Q363.9375,56.375 363.25,57.4531 Q362.5625,58.5156 362.5625,60.6094 Q362.5625,62.7031 363.25,63.7813 Q363.9375,64.8438 365.2813,64.8438 Q365.9063,64.8438 366.5,64.5781 Q367.0938,64.2969 367.7188,63.7188 L367.7188,66.4375 Z " fill="#000000"/><text fill="#000000" font-family="sans-serif" font-size="14" lengthAdjust="spacing" textLength="109" x="385.75" y="65.1436">LessonsService</text><line style="stroke:#181818;stroke-width:0.5;" x1="257.5" x2="590.5" y1="76.2969" y2="76.2969"/><line style="stroke:#181818;stroke-width:0.5;" x1="257.5" x2="590.5" y1="84.2969" y2="84.2969"/><ellipse cx="267.5" cy="97.9453" fill="#84BE84" rx="3" ry="3" style="stroke:#038048;stroke-width:1.0;"/><text fill="#000000" font-family="sans-serif" font-size="14" lengthAdjust="spacing" textLength="176" x="276.5" y="101.292">create(LessonIn): Lesson</text><ellipse cx="267.5" cy="114.2422" fill="#84BE84" rx="3" ry="3" style="stroke:#038048;stroke-width:1.0;"/><text fill="#000000" font-family="sans-serif" font-size="14" lengthAdjust="spacing" textLength="224" x="276.5" y="117.5889">start(Student, Lesson): Progress</text><ellipse cx="267.5" cy="130.5391" fill="#84BE84" rx="3" ry="3" style="stroke:#038048;stroke-width:1.0;"/><text fill="#000000" font-family="sans-serif" font-size="14" lengthAdjust="spacing" textLength="309" x="276.5" y="133.8857">updateProgress(Lesson, Progress): Progress</text></g><!--class ModulesService--><g id="elem_ModulesService"><rect codeLine="11" fill="#F1F1F1" height="64.2969" id="ModulesService" rx="2.5" ry="2.5" style="stroke:#181818;stroke-width:0.5;" width="208" x="10" y="201.2969"/><ellipse cx="53.8" cy="217.2969" fill="#ADD1B2" rx="11" ry="11" style="stroke:#181818;stroke-width:1.0;"/><path d="M56.2688,223.4375 Q55.6906,223.7344 55.05,223.875 Q54.4094,224.0313 53.7063,224.0313 Q51.2063,224.0313 49.8781,222.3906 Q48.5656,220.7344 48.5656,217.6094 Q48.5656,214.4844 49.8781,212.8281 Q51.2063,211.1719 53.7063,211.1719 Q54.4094,211.1719 55.05,211.3281 Q55.7063,211.4844 56.2688,211.7813 L56.2688,214.5 Q55.6438,213.9219 55.05,213.6563 Q54.4563,213.375 53.8313,213.375 Q52.4875,213.375 51.8,214.4531 Q51.1125,215.5156 51.1125,217.6094 Q51.1125,219.7031 51.8,220.7813 Q52.4875,221.8438 53.8313,221.8438 Q54.4563,221.8438 55.05,221.5781 Q55.6438,221.2969 56.2688,220.7188 L56.2688,223.4375 Z " fill="#000000"/><text fill="#000000" font-family="sans-serif" font-size="14" lengthAdjust="spacing" textLength="112" x="74.2" y="222.1436">ModulesService</text><line style="stroke:#181818;stroke-width:0.5;" x1="11" x2="217" y1="233.2969" y2="233.2969"/><line style="stroke:#181818;stroke-width:0.5;" x1="11" x2="217" y1="241.2969" y2="241.2969"/><ellipse cx="21" cy="254.9453" fill="#84BE84" rx="3" ry="3" style="stroke:#038048;stroke-width:1.0;"/><text fill="#000000" font-family="sans-serif" font-size="14" lengthAdjust="spacing" textLength="182" x="30" y="258.292">create(ModuleIn): Module</text></g><!--SRC=[TOv12W8n34NtFKMObU9u0MyWZ23C2KeRIw2sqcJS3DxTCat5pMILvFt_-K8I4OO9RKcK0WJxf0SvAvGJd676yYQ7F1ZZecM6MHQFILW1h0RgdC0Lj887nTTql7If-QXrGkQSzfoDRiQsAcQnHNhkgAoAxYM7KW-LBIzVK_fJqyQVwj_G-zooNoBkzMbqwzFMwli2]--></g></svg>